<svg xmlns="http://www.w3.org/2000/svg" xmlns:xlink="http://www.w3.org/1999/xlink" viewBox="0 0 992.56707 743.5001"><defs><linearGradient id="linear-gradient" x1="1200.86966" y1="662.54699" x2="373.44981" y2="169.32723" gradientTransform="matrix(1, 0, 0, -1, 0, 1210.96997)" gradientUnits="userSpaceOnUse"><stop offset="0" stop-color="#fb4faf"/><stop offset="0.41961" stop-color="#c835f8"/><stop offset="1" stop-color="#1a85f8"/></linearGradient><linearGradient id="linear-gradient-2" x1="1283.44073" y1="573.3436" x2="489.18047" y2="77.38345" xlink:href="#linear-gradient"/><linearGradient id="linear-gradient-3" x1="472.22524" y1="359.1804" x2="1081.53605" y2="707.37097" gradientTransform="matrix(1, 0, 0, -1, 0, 1210.96997)" gradientUnits="userSpaceOnUse"><stop offset="0" stop-color="#fb4faf"/><stop offset="1" stop-color="#f9d92e"/></linearGradient></defs><g id="LOGO"><path d="M1320.16784,430.49254h0c-2.73,0-6.61,1.15-11.84,3.28h0c-20.9699,8.56-37.3299,18.49-52.0799,36.02h0a135.62117,135.62117,0,0,0-8.87,11.75h0c-13.73-.26-27.85,4.5901-35.25,16.7801,9.96-4.25,18.09-3.43,26.6,2.8499h0l-7.89,15.85,1.5899,1.29,1.59,1.29,18.41,14.9199,1.83,1.48,1.8299,1.48,14.39-9.82c6.1,5.66,10.21,18.33,9.58,26.62h0c7.02-6.6,13.59-29.08,7.45-39.84h0a133.29894,133.29894,0,0,0,10.29-10.97h0c14.79-17.57,21.98-35.68,26.51-57.61h0c2.21-10.68,1.38-15.37-4.14-15.37Z" transform="translate(-332.87623 -430.49244)" style="fill:url(#linear-gradient)"/><path d="M413.46784,962.60254c-39.62-8.56987-38.04-35.26-6.83-80.83h0c-121.56,64.28-74.78,137.41,10.5,144.6h0c122.83989,10.34,291.69-69.93,398.77-122.46h0a80.59023,80.59023,0,0,1-8.26,7.54h0c-27,23.86-117.59,98.16-232.45,130.63h0c1.21,1.74,2.46,3.52,3.8,5.38h0a301.96814,301.96814,0,0,0,246.01,126.53h0c167.01,0,302.4-135.39,302.4-302.4h0a301.19872,301.19872,0,0,0-38.58-147.92h0c75.47-71.02,110.47-120.72,138.98-175.14h0c-148.8299,140.87-603.33,459.72-814.34,414.07Z" transform="translate(-332.87623 -430.49244)" style="fill:url(#linear-gradient-2)"/><path d="M575.19784,1042.08254c1.21,1.74,2.46,3.52,3.8,5.38a301.96814,301.96814,0,0,0,246.01,126.53c131.5,0,243.38-83.94988,285.02-201.16-103.7,191.51-450.32,171.84-380,37.68993,25.58-48.78,81.88-102.7,81.88-102.7h0q-1.965,1.77-4.26,3.63c-27,23.86-117.59,98.16-232.45,130.63Z" transform="translate(-332.87623 -430.49244)" style="fill:#5e17a9;fill-opacity:0.34902000000000005"/><path d="M511.52784,863.67254a303.95857,303.95857,0,0,0,4.98,54.92h0c162.17-46.24,385.36-161.6301,522.73-256.62h0a301.67068,301.67068,0,0,0-225.31-100.69h0C646.91772,561.28254,511.52784,696.67254,511.52784,863.67254Z" transform="translate(-332.87623 -430.49244)" style="fill:url(#linear-gradient-3)"/><path d="M700.04784,583.48254c-110.56,44.98-188.52,153.47-188.52,280.19a303.95857,303.95857,0,0,0,4.98,54.92c74.23-21.17,161.25-56.83,246.96988-98.38-248.41,78.11-230.88-167.49-63.42988-236.73Z" transform="translate(-332.87623 -430.49244)" style="fill:#e60040;fill-opacity:0.301961"/><polygon points="300.322 281.39 308.192 297.51 324.662 305.72 308.542 313.59 300.322 330.06 292.452 313.94 275.992 305.72 292.112 297.85 300.322 281.39" style="fill:#fff"/><polygon points="694.152 476.62 702.022 492.74 718.482 500.95 702.362 508.82 694.152 525.29 686.282 509.17 669.812 500.95 685.932 493.09 694.152 476.62" style="fill:#fff"/><polygon points="486.822 599.59 492.322 610.86 503.822 616.6 492.562 622.09 486.822 633.6 481.322 622.33 469.822 616.6 481.082 611.1 486.822 599.59" style="fill:#fff"/><polygon points="623.022 599.57 627.062 607.83 635.502 612.04 627.232 616.08 623.022 624.52 618.992 616.25 610.552 612.04 618.812 608.01 623.022 599.57" style="fill:#fff"/><polygon points="560.912 453.86 564.952 462.13 573.392 466.34 565.132 470.37 560.912 478.81 556.882 470.55 548.442 466.34 556.702 462.3 560.912 453.86" style="fill:#fff"/><polygon points="432.932 189.1 436.972 197.36 445.412 201.57 437.142 205.61 432.932 214.05 428.902 205.78 420.462 201.57 428.722 197.54 432.932 189.1" style="fill:#fff"/><polygon points="456.772 275.77 462.262 287.03 473.772 292.77 462.512 298.26 456.772 309.77 451.272 298.51 439.772 292.77 451.032 287.27 456.772 275.77" style="fill:#fff"/></g></svg>